# AST/ASF file generated using VICON BodyLanguage
# -----------------------------------------------
:version 1.10
:name VICON
:units
  mass 1.0
  length 0.45
  angle deg
:documentation
   .ast/.asf automatically generated from VICON data using
   VICON BodyBuilder and BodyLanguage model FoxedUp or BRILLIANT.MOD
:root
   order TX TY TZ RX RY RZ
   axis XYZ
   position 0 0 0  
   orientation 0 0 0 
:bonedata
  begin
     id 1 
     name lhipjoint
     direction 0.521452 -0.77106 0.36545 
     length 2.0933 
     axis 0 0 0  XYZ
  end
  begin
     id 2 
     name lfemur
     direction 0.34202 -0.939693 0  
     length 6.83441  
     axis 0 0 20  XYZ
    dof rx ry rz
    limits (-160.0 20.0)
           (-70.0 70.0)
           (-60.0 70.0)
  end
  begin
     id 3 
     name ltibia
     direction 0.34202 -0.939693 0   
     length 7.28749   
     axis 0 0 20   XYZ
    dof rx
    limits (-10.0 170.0)
  end
  begin
     id 4 
     name lfoot
     direction 0.100608 -0.276418 0.955757   
     length 1.52195   
     axis -90 7.62852e-016 20   XYZ
    dof rx rz
    limits (-45.0 90.0)
           (-70.0 20.0)
  end
  begin
     id 5 
     name ltoes
     direction 1.53558e-011 -4.21907e-011 1   
     length 0.770459   
     axis -90 7.62852e-016 20   XYZ
    dof rx
    limits (-90.0 20.0)
  end
  begin
     id 6 
     name rhipjoint
     direction -0.488071 -0.788702 0.373812   
     length 2.04648  
     axis 0 0 0  XYZ 
  end
  begin
     id 7 
     name rfemur
     direction -0.34202 -0.939693 0   
     length 6.92583   
     axis 0 0 -20   XYZ
    dof rx ry rz
    limits (-160.0 20.0)
           (-70.0 70.0)
           (-70.0 60.0)
  end
  begin
     id 8 
     name rtibia
     direction -0.34202 -0.939693 0   
     length 7.41043   
     axis 0 0 -20   XYZ
    dof rx
    limits (-10.0 170.0)
 end
 begin
     id 9 
     name rfoot
     direction -0.0784433 -0.215521 0.973343   
     length 1.67708  
     axis -90 -7.62852e-016 -20   XYZ
    dof rx rz
    limits (-45.0 90.0)
           (-20.0 70.0)
  end
  begin
     id 10 
     name rtoes
     direction -1.53551e-011 -4.21842e-011 1   
     length 0.849787   
     axis -90 -7.62852e-016 -20   XYZ
    dof rx
    limits (-90.0 20.0)
  end
  begin
     id 11 
     name lowerback
     direction -0.0122332 0.997575 -0.0685192   
     length 1.98724   
     axis 0 0 0   XYZ
    dof rx ry rz
    limits (-20.0 45.0)
           (-30.0 30.0)
           (-30.0 30.0)
  end
  begin
     id 12 
     name upperback
     direction 0.0182347 0.999724 -0.0148421   
     length 1.99029   
     axis 0 0 0   XYZ
    dof rx ry rz
    limits (-20.0 45.0)
           (-30.0 30.0)
           (-30.0 30.0)
  end
  begin
     id 13 
     name thorax
     direction 0.0242908 0.99956 0.0170184   
     length 1.99573   
     axis 0 0 0   XYZ
    dof rx ry rz
    limits (-20.0 45.0)
           (-30.0 30.0)
           (-30.0 30.0)
  end
  begin
     id 14 
     name lowerneck
     direction 0.0654488 0.985533 0.156338   
     length 1.4285   
     axis 0 0 0   XYZ
    dof rx ry rz
    limits (-20.0 45.0)
           (-30.0 30.0)
           (-30.0 30.0)
  end
  begin
     id 15 
     name upperneck
     direction -0.02953 0.998556 -0.0448842   
     length 1.44709   
     axis 0 0 0   XYZ
    dof rx ry rz
    limits (-20.0 45.0)
           (-30.0 30.0)
           (-30.0 30.0)
  end
  begin
     id 16
     name head
     direction -0.0155588 0.999386 -0.0314063  
     length 1.44689  
     axis 0 0 0   XYZ
    dof rx ry rz
    limits (-20.0 45.0)
           (-30.0 30.0)
           (-30.0 30.0)
  end
  begin
     id 17 
     name lclavicle
     direction 0.968229 0.236071 -0.0824755  
     length 3.60593  
     axis 0 0 0   XYZ
    dof ry rz
    limits (-20.0 10.0)
           (0.0 20.0)
  end
  begin
     id 18 
     name lhumerus
     direction 1 -4.48968e-011 7.8138e-029   
     length 5.06035   
     axis 180 -30 -90   XYZ
    dof rx ry rz
    limits (-60.0 90.0)
           (-90.0 90.0)
           (-90.0 90.0)
  end
  begin
     id 19
     name lradius
     direction 1 -4.48967e-011 9.02887e-028   
     length 3.1478   
     axis 180 -30 -90   XYZ
    dof rx
    limits (-10.0 170.0)
  end
  begin
     id 20
     name lwrist
     direction 1 -4.48961e-011 7.20928e-028   
     length 1.5739   
     axis -5.52449e-016 90 90   XYZ
    dof ry
    limits (-180.0 0.0)
 end
  begin
     id 21 
     name lhand
     direction 1 -4.48972e-011 1.44186e-027   
     length 0.606747   
     axis -9.20027e-016 90 90   XYZ
    dof rx rz
    limits (-90.0 90.0)
           (-45.0 45.0)
  end
  begin
     id 22 
     name lfingers
     direction 1 -4.48943e-011 2.88371e-027   
     length 0.489175   
     axis -1.84005e-015 90 90   XYZ
    dof rx
    limits (0.0 90.0)
  end
  begin
     id 23
     name lthumb
     direction 0.707107 -6.34917e-011 0.707107   
     length 0.70236   
     axis -90 45 2.85299e-015   XYZ
    dof rx rz
    limits (-45.0 45.0)
           (-45.0 45.0)
  end
  begin
     id 24 
     name rclavicle
     direction -0.978165 0.207816 0.0022268   
     length 3.35425  
     axis 0 0 0   XYZ 
    dof ry rz
    limits (-10.0 20.0)
           (-20.0 0.0)
  end
  begin
     id 25 
     name rhumerus
     direction -1 -4.48964e-011 -4.02159e-027  
     length 5.12273   
     axis 180 30 90   XYZ
    dof rx ry rz
    limits (-90.0 60.0)
           (-90.0 90.0)
           (-90.0 90.0)
  end
  begin
     id 26 
     name rradius
     direction -1 -4.48966e-011 1.62746e-027   
     length 3.422   
     axis 180 30 90   XYZ
    dof rx
    limits (-10.0 170.0)
  end
  begin
     id 27 
     name rwrist
     direction -1 -4.4896e-011 7.20928e-028   
     length 1.711   
     axis -5.52449e-016 -90 -90   XYZ
    dof ry
    limits (-180.0 0.0)
  end
  begin
     id 28
     name rhand
     direction -1 -4.48979e-011 1.44186e-027   
     length 0.704599   
     axis -9.20027e-016 -90 -90   XYZ
    dof rx rz
    limits (-90.0 90.0)
           (-45.0 45.0)
  end
  begin
     id 29
     name rfingers
     direction -1 -4.48962e-011 2.88371e-027   
     length 0.568066   
     axis -1.84005e-015 -90 -90   XYZ
    dof rx
    limits (0.0 90.0)
  end
  begin
     id 30
     name rthumb
     direction -0.707107 -6.34949e-011 0.707107   
     length 0.815633   
     axis -90 -45 -2.85299e-015   XYZ
    dof rx rz
    limits (-45.0 45.0)
           (-45.0 45.0)
  end
:hierarchy
  begin
    root lhipjoint rhipjoint lowerback
    lhipjoint lfemur
    lfemur ltibia
    ltibia lfoot
    lfoot ltoes
    rhipjoint rfemur
    rfemur rtibia
    rtibia rfoot
    rfoot rtoes
    lowerback upperback
    upperback thorax
    thorax lowerneck lclavicle rclavicle
    lowerneck upperneck
    upperneck head
    lclavicle lhumerus
    lhumerus lradius
    lradius lwrist
    lwrist lhand lthumb
    lhand lfingers
    rclavicle rhumerus
    rhumerus rradius
    rradius rwrist
    rwrist rhand rthumb
    rhand rfingers
  end

#!OML:ASF E:\id_vita\Project 1\Capture day 1\Session 1\Male1.ASF
:FULLY-SPECIFIED
:DEGREES
247
root 21.409 16.016 2.66854 204.914 -86.5476 -200.994
lowerback -1.25108 -5.29914 -3.03441
upperback 1.052 -7.01165 0.180154
thorax 2.16462 -3.54683 1.6276
lowerneck -7.3417 -0.56374 -0.392048
upperneck -3.80283 -0.881258 -1.56589
head 0.0315597 -0.506587 -0.429916
rclavicle -5.74612e-014 7.15625e-015
rhumerus -36.961 -22.6316 -71.1501
rradius 14.9097
rwrist 20.9405
rhand -18.6632 35.4548
rfingers 7.12502
rthumb 7.6302 5.61248
lclavicle -5.74612e-014 7.15625e-015
lhumerus -12.9903 16.9157 83.44
lradius 22.4961
lwrist -4.81805
lhand -14.1936 44.4575
lfingers 7.12502
lthumb 11.9424 74.0969
rfemur -27.3055 2.29268 21.2921
rtibia 33.8908
rfoot -9.95539 -3.27086
rtoes -0.0666423
lfemur 2.80339 2.21615 -21.8027
ltibia 45.6564
lfoot 7.03285 -5.30725
ltoes 50.2822
248
root 21.2602 16.0342 2.6437 198.26 -86.7358 -194.458
lowerback -1.07166 -5.25225 -2.59886
upperback 1.09178 -6.96372 0.234959
thorax 2.05714 -3.5168 1.46535
lowerneck -6.66658 -0.971266 0.51253
upperneck -5.21654 -1.5641 -2.31561
head -0.525325 -0.865333 -0.812577
rclavicle -7.70291e-014 -3.18055e-015
rhumerus -36.6272 -21.7988 -71.9917
rradius 15.4871
rwrist 19.6927
rhand -18.5788 35.5472
rfingers 7.12502
rthumb 7.71173 5.70786
lclavicle -7.70291e-014 -3.18055e-015
lhumerus -13.2097 18.1098 83.1865
lradius 21.3102
lwrist -6.12019
lhand -13.8319 44.9787
lfingers 7.12502
lthumb 12.2912 74.5974
rfemur -26.4268 2.33191 21.8696
rtibia 33.7022
rfoot -10.6055 -3.47659
rtoes 0.839899
lfemur 1.78371 2.30941 -21.2167
ltibia 47.9818
lfoot 7.98933 -5.02712
ltoes 50.2943
249
root 21.1159 16.0444 2.61891 192.338 -86.8346 -188.651
lowerback -1.21897 -5.18057 -2.25792
upperback 1.33049 -6.87058 0.235362
thorax 2.3405 -3.47017 1.25556
lowerneck -6.57163 -1.01524 0.592133
upperneck -5.63014 -1.64641 -2.27006
head -0.669359 -0.909851 -0.811122
rclavicle -9.89823e-014 -1.39149e-015
rhumerus -36.0192 -20.8444 -73.0815
rradius 16.1506
rwrist 18.2102
rhand -18.9628 34.8563
rfingers 7.12502
rthumb 7.34105 5.00365
lclavicle -9.89823e-014 -1.39149e-015
lhumerus -13.2202 19.8328 82.9071
lradius 20.0931
lwrist -8.03568
lhand -13.5786 44.9115
lfingers 7.12502
lthumb 12.5354 74.5155
rfemur -25.4957 2.46851 22.3404
rtibia 33.4375
rfoot -11.0997 -3.89432
rtoes 1.04293
lfemur 0.795662 2.40281 -20.7402
ltibia 50.2564
lfoot 8.67591 -4.727
ltoes 50.3447
250
root 20.9729 16.0585 2.59352 186.633 -86.9024 -183.05
lowerback -1.17245 -5.13065 -2.00892
upperback 1.44283 -6.81174 0.289581
thorax 2.40507 -3.43906 1.17588
lowerneck -6.40951 -1.07087 0.430134
upperneck -6.03587 -1.72125 -2.02307
head -0.817958 -0.945843 -0.706455
rclavicle 2.19409e-014 -1.39149e-015
rhumerus -35.6026 -20.3651 -73.6743
rradius 16.6263
rwrist 17.493
rhand -18.2777 36.3661
rfingers 7.12502
rthumb 8.00231 6.53758
lclavicle 2.19409e-014 -1.39149e-015
lhumerus -13.3685 21.8269 82.5777
lradius 18.8574
lwrist -10.218
lhand -13.5311 44.446
lfingers 7.12502
lthumb 12.5812 74.0472
rfemur -24.5145 2.68212 22.7644
rtibia 33.0533
rfoot -11.3171 -4.33857
rtoes 0.680657
lfemur -0.292511 2.53039 -20.3075
ltibia 52.4759
lfoot 8.2606 -4.34568
ltoes 51.3795
251
root 20.8287 16.0835 2.57243 179.335 -86.993 -175.764
lowerback -0.989223 -5.13844 -1.68589
upperback 1.36105 -6.83534 0.458416
thorax 2.20188 -3.44552 1.19395
lowerneck -6.43506 -1.03594 0.0869655
upperneck -5.73746 -1.63632 -1.92194
head -0.716845 -0.894771 -0.618101
rclavicle 8.00729e-014 3.37934e-015
rhumerus -35.3634 -19.3204 -74.2456
rradius 17.2061
rwrist 16.448
rhand -19.427 35.3359
rfingers 7.12502
rthumb 6.89293 5.46813
lclavicle 8.00729e-014 3.37934e-015
lhumerus -13.8388 23.8963 82.2009
lradius 17.7022
lwrist -12.3453
lhand -13.4562 44.3716
lfingers 7.12502
lthumb 12.6534 73.9683
rfemur -23.6466 2.77487 23.2664
rtibia 32.5357
rfoot -11.4663 -4.61649
rtoes 0.380489
lfemur -1.6079 2.57368 -19.843
ltibia 54.6128
lfoot 7.4432 -3.57541
ltoes 51.4086
252
root 20.6885 16.1059 2.55064 167.47 -86.8889 -163.843
lowerback -0.851583 -5.11832 -1.09501
upperback 1.29052 -6.82455 0.653195
thorax 2.00644 -3.43192 1.08909
lowerneck -6.80379 -1.08735 -0.115429
upperneck -5.22925 -1.66618 -1.74267
head -0.499146 -0.907211 -0.533974
rclavicle 1.97418e-014 2.38542e-015
rhumerus -35.1579 -17.7572 -75.1764
rradius 18.0515
rwrist 14.7938
rhand -19.502 35.4644
rfingers 7.12502
rthumb 6.82054 5.59429
lclavicle 1.97418e-014 2.38542e-015
lhumerus -14.3315 25.7127 81.6675
lradius 16.5983
lwrist -14.2892
lhand -13.3835 44.386
lfingers 7.12502
lthumb 12.7235 73.9783
rfemur -22.8181 2.94836 24.0681
rtibia 31.9033
rfoot -11.4482 -4.87049
rtoes -1.10356
lfemur -3.05786 2.68577 -19.0888
ltibia 56.646
lfoot 6.25999 -2.75204
ltoes 50.6867
253
root 20.5493 16.1232 2.52702 158.068 -86.5805 -154.467
lowerback -0.727903 -5.05257 -0.537729
upperback 1.29594 -6.74959 0.77104
thorax 1.89038 -3.38785 0.920285
lowerneck -6.7322 -1.04665 0.00755112
upperneck -5.27762 -1.61892 -1.70435
head -0.525484 -0.884653 -0.541112
rclavicle 4.5062e-014 1.98785e-016
rhumerus -34.873 -16.8721 -75.9246
rradius 18.6813
rwrist 13.7312
rhand -19.6311 35.5701
rfingers 7.12502
rthumb 6.69598 5.69602
lclavicle 4.5062e-014 1.98785e-016
lhumerus -14.9026 28.0114 80.8591
lradius 15.5642
lwrist -16.7411
lhand -13.1965 44.0989
lfingers 7.12502
lthumb 12.9038 73.68
rfemur -21.8186 3.15582 24.8462
rtibia 31.2391
rfoot -11.5589 -5.07414
rtoes -2.34697
lfemur -4.43424 2.9476 -18.3533
ltibia 58.5217
lfoot 4.9799 -2.16198
ltoes 49.6343
254
root 20.4108 16.1405 2.50477 152.617 -86.3486 -149.083
lowerback -0.509356 -4.98817 -0.181284
upperback 1.29221 -6.67113 0.865058
thorax 1.73319 -3.34514 0.845527
lowerneck -6.31644 -1.08793 -0.76072
upperneck -5.39107 -1.61675 -1.27463
head -0.617021 -0.86597 -0.281579
rclavicle 6.19214e-014 2.78299e-015
rhumerus -34.5599 -16.1943 -76.4779
rradius 19.2607
rwrist 12.8752
rhand -19.5559 35.5714
rfingers 7.12502
rthumb 6.76854 5.69955
lclavicle 6.19214e-014 2.78299e-015
lhumerus -15.6849 30.8825 79.9638
lradius 14.7487
lwrist -19.6929
lhand -13.0619 44.4079
lfingers 7.12502
lthumb 13.0335 73.9807
rfemur -20.82 3.22082 25.3838
rtibia 30.6537
rfoot -12.1752 -5.12008
rtoes 0.0626213
lfemur -5.74429 3.11966 -17.8879
ltibia 60.1966
lfoot 3.97516 -1.68056
ltoes 48.9005
255
root 20.2802 16.1517 2.48322 148.997 -86.1362 -145.519
lowerback -0.268251 -4.921 0.0230741
upperback 1.3459 -6.587 0.980965
thorax 1.64278 -3.30258 0.873699
lowerneck -6.51201 -1.23128 -0.373292
upperneck -5.7087 -1.85811 -1.55848
head -0.690109 -0.998576 -0.434235
rclavicle -1.10077e-014 -4.77083e-015
rhumerus -34.1387 -15.4417 -77.0042
rradius 19.8938
rwrist 12.088
rhand -19.5016 35.7287
rfingers 7.12502
rthumb 6.82095 5.85856
lclavicle -1.10077e-014 -4.77083e-015
lhumerus -16.2162 33.5028 79.2045
lradius 13.8455
lwrist -22.3854
lhand -13.2498 45.0976
lfingers 7.12502
lthumb 12.8524 74.6819
rfemur -19.9322 3.26348 25.8153
rtibia 30.1597
rfoot -12.1137 -5.33516
rtoes -2.22653
lfemur -7.08301 3.20254 -17.5663
ltibia 61.6688
lfoot 3.38438 -1.27076
ltoes 49.268
256
root 20.1514 16.1608 2.46465 147.971 -86.0161 -144.48
lowerback -0.15475 -4.83427 0.0891306
upperback 1.36881 -6.4725 1.00785
thorax 1.59671 -3.24519 0.876625
lowerneck -6.42236 -1.40058 0.149049
upperneck -6.07324 -2.14644 -1.95362
head -0.829319 -1.15383 -0.642932
rclavicle -3.81667e-014 -1.09332e-014
rhumerus -33.8018 -14.5554 -77.6294
rradius 20.6252
rwrist 11.0894
rhand -19.8353 35.7089
rfingers 7.12502
rthumb 6.49886 5.82861
lclavicle -3.81667e-014 -1.09332e-014
lhumerus -16.9097 35.4923 78.3681
lradius 13.0767
lwrist -24.5532
lhand -13.5126 44.9347
lfingers 7.12502
lthumb 12.5991 74.5347
rfemur -19.1742 3.21442 26.0276
rtibia 29.7183
rfoot -12.3155 -5.37725
rtoes -3.04508
lfemur -8.52373 3.21504 -17.4916
ltibia 62.9285
lfoot 2.75002 -1.0201
ltoes 50.005
257
root 20.0189 16.1754 2.44634 147.749 -85.9346 -144.169
lowerback -0.113736 -4.76008 0.143097
upperback 1.30385 -6.37172 0.980655
thorax 1.49637 -3.19353 0.828976
lowerneck -6.44597 -1.38931 -0.0101377
upperneck -5.677 -2.10294 -2.00469
head -0.70187 -1.12599 -0.633361
rclavicle -2.98177e-014 1.31198e-014
rhumerus -33.6682 -13.5474 -78.2931
rradius 21.4846
rwrist 9.90119
rhand -19.9857 35.6769
rfingers 7.12502
rthumb 6.35359 5.79221
lclavicle -2.98177e-014 1.31198e-014
lhumerus -18.1423 37.0631 77.3157
lradius 12.7933
lwrist -26.2975
lhand -13.4978 44.4931
lfingers 7.12502
lthumb 12.6133 74.0923
rfemur -18.5169 3.12203 26.1598
rtibia 29.3435
rfoot -12.854 -5.2708
rtoes -1.88423
lfemur -10.0174 3.19827 -17.4927
ltibia 63.9975
lfoot 1.78887 -1.06588
ltoes 50.1855
258
root 19.8917 16.1859 2.42577 146.558 -85.7745 -142.907
lowerback 0.0921271 -4.72246 0.201123
upperback 1.21582 -6.32005 1.04676
thorax 1.29144 -3.16765 0.888938
lowerneck -7.64624 -0.883094 -1.19074
upperneck -3.46812 -1.22629 -1.04056
head 0.188251 -0.667407 -0.150649
rclavicle 1.80894e-014 1.27222e-014
rhumerus -33.4331 -12.7285 -78.7325
rradius 22.0502
rwrist 9.10691
rhand -19.4745 36.8734
rfingers 7.12502
rthumb 6.84716 7.00413
lclavicle 1.80894e-014 1.27222e-014
lhumerus -19.5877 39.0892 76.0982
lradius 12.5989
lwrist -28.2768
lhand -13.4056 44.53
lfingers 7.12502
lthumb 12.7022 74.1237
rfemur -17.8617 3.06214 26.4239
rtibia 29.0144
rfoot -13.3924 -5.22241
rtoes -1.11574
lfemur -11.5258 3.18073 -17.356
ltibia 64.9125
lfoot 1.03072 -1.3464
ltoes 50.3578
259
root 19.7725 16.1883 2.40384 145.559 -85.6649 -141.874
lowerback 0.419461 -4.65764 0.163621
upperback 1.11695 -6.23036 1.12613
thorax 1.01867 -3.12384 1.02597
lowerneck -6.75979 -1.32696 -1.07818
upperneck -4.7872 -1.88066 -0.943907
head -0.35857 -0.993419 -0.140105
rclavicle 1.29955e-014 -8.54774e-015
rhumerus -33.188 -12.0032 -79.0897
rradius 22.5687
rwrist 8.33532
rhand -20.0235 36.5922
rfingers 7.12502
rthumb 6.31717 6.70637
lclavicle 1.29955e-014 -8.54774e-015
lhumerus -20.9569 41.2482 74.7789
lradius 12.1752
lwrist -30.3955
lhand -13.4333 44.4185
lfingers 7.12502
lthumb 12.6755 74.0138
rfemur -17.1924 3.03054 26.6539
rtibia 28.6629
rfoot -13.6671 -5.30122
rtoes -1.33554
lfemur -13.0369 3.08605 -17.26
ltibia 65.6888
lfoot 0.641237 -1.64429
ltoes 50.8013
260
root 19.6497 16.1919 2.37823 144.05 -85.4886 -140.362
lowerback 0.696815 -4.61532 0.154536
upperback 1.0368 -6.17172 1.2182
thorax 0.791745 -3.09518 1.15392
lowerneck -6.78684 -0.99377 -2.08303
upperneck -4.31184 -1.3317 -0.105791
head -0.196433 -0.698606 0.282254
rclavicle -2.19409e-014 3.18055e-015
rhumerus -32.9699 -11.1899 -79.5404
rradius 23.242
rwrist 7.64296
rhand -20.4102 35.4436
rfingers 7.12502
rthumb 5.94376 5.54695
lclavicle -2.19409e-014 3.18055e-015
lhumerus -22.3293 42.8274 73.4096
lradius 11.7511
lwrist -31.9424
lhand -13.5564 44.3499
lfingers 7.12502
lthumb 12.5569 73.9526
rfemur -16.5383 3.18679 26.9749
rtibia 28.4192
rfoot -14.1704 -5.4487
rtoes 0.580078
lfemur -14.4793 3.03286 -17.0478
ltibia 66.2942
lfoot 0.342294 -1.96748
ltoes 51.3419
261
root 19.5189 16.1956 2.35281 142.433 -85.0304 -138.75
lowerback 0.879017 -4.53056 0.395805
upperback 1.02703 -6.05781 1.30921
thorax 0.662723 -3.03747 1.13141
lowerneck -6.75424 -1.3425 -0.908983
upperneck -4.64047 -1.91132 -1.17728
head -0.318476 -1.01097 -0.238844
rclavicle 2.78299e-014 -3.97569e-015
rhumerus -32.6312 -10.581 -80.0292
rradius 23.8542
rwrist 7.19684
rhand -20.3198 36.2546
rfingers 7.12502
rthumb 6.03107 6.36043
lclavicle 2.78299e-014 -3.97569e-015
lhumerus -23.611 43.5825 72.251
lradius 11.6129
lwrist -32.5626
lhand -13.2528 44.7959
lfingers 7.12502
lthumb 12.8495 74.3804
rfemur -15.8585 3.52325 27.5139
rtibia 28.1808
rfoot -14.6551 -5.58504
rtoes 1.92521
lfemur -15.9061 3.14993 -16.613
ltibia 66.7562
lfoot -0.503383 -2.76862
ltoes 50.8164
